<?xml version="1.0" encoding="UTF-8" standalone="no"?>
<!-- Created with Inkscape (http://www.inkscape.org/) -->

<svg
   xmlns:dc="http://purl.org/dc/elements/1.1/"
   xmlns:cc="http://creativecommons.org/ns#"
   xmlns:rdf="http://www.w3.org/1999/02/22-rdf-syntax-ns#"
   xmlns:svg="http://www.w3.org/2000/svg"
   xmlns="http://www.w3.org/2000/svg"
   version="1.1"
   width="744.09448"
   height="1052.3622"
   id="svg2">
  <defs
     id="defs4" />
  <metadata
     id="metadata7">
    <rdf:RDF>
      <cc:Work
         rdf:about="">
        <dc:format>image/svg+xml</dc:format>
        <dc:type
           rdf:resource="http://purl.org/dc/dcmitype/StillImage" />
        <dc:title></dc:title>
      </cc:Work>
    </rdf:RDF>
  </metadata>
  <g
     id="layer1">
    <path
       d="M -27.63325,-71.910578 635.71459,-71.910578 635.71459,240.98006 -27.63325,240.98006 z"
       id="rect2985"
       style="fill:none;stroke:#000000;stroke-width:0.9012869;stroke-miterlimit:4;stroke-opacity:1" />
    <path
       d="M -8.4053538,47.362012 C -8.3668238,44.88347 -8.3186438,42.14754 -8.2608248,39.154213 -8.2030248,36.160903 -8.1741148,34.473589 -8.1741148,34.092262 L -8.1741148,-21.903799 C -8.1741228,-22.323179 -8.2030248,-24.029559 -8.2608248,-27.022949 -8.3186448,-30.016199 -8.3668228,-32.752129 -8.4053538,-35.230749 L 29.112972,-35.287949 C 29.074392,-32.466139 29.006947,-29.577679 28.910647,-26.622569 28.814237,-23.667309 28.766091,-22.094389 28.766118,-21.903799 L 28.766118,30.431642 C 28.766073,30.622307 28.814238,32.176174 28.910647,35.093214 29.006947,38.010281 29.074389,40.860607 29.112972,43.644197 L 35.876674,43.644197 C 45.781292,43.6442 55.300572,43.41541 64.434532,42.95783 65.744802,42.88158 66.515592,42.843436 66.746912,42.843436 67.517622,42.843441 68.086082,43.034101 68.452292,43.415407 68.818332,43.796727 69.001402,44.387765 69.001482,45.188521 69.001402,46.065548 68.760522,46.656583 68.278862,46.961634 67.797032,47.266688 66.900992,47.419212 65.590722,47.419212 z"
       id="path3005"
       style="font-size:44.92314148px;font-style:normal;font-variant:normal;font-weight:normal;font-stretch:normal;line-height:125%;letter-spacing:0px;word-spacing:0px;fill:#666666;fill-opacity:1;stroke:none;font-family:Broadway BT;-inkscape-font-specification:Broadway BT" />
    <path
       d="M 118.19731,11.899741 C 116.34736,10.450781 114.36257,9.3163812 112.24294,8.4965112 110.12322,7.6767212 108.08062,7.2668112 106.11514,7.2667712 104.30374,7.2668112 103.00303,7.8673812 102.213,9.0684812 101.4229,10.269661 101.02788,12.242961 101.02791,14.988391 L 101.02791,38.267657 C 101.02788,40.212369 101.28803,41.594632 101.80834,42.414455 102.32858,43.234286 103.16682,43.644197 104.32305,43.644194 106.13437,43.644197 108.22514,43.100825 110.59537,42.014074 112.96551,40.927334 115.49949,39.335347 118.19731,37.238108 z M 118.19731,47.419209 118.19731,41.585094 C 114.45892,44.368695 110.8362,46.408726 107.32914,47.705196 103.82199,49.001665 100.21854,49.649897 96.518772,49.6499 88.579592,49.649897 82.210922,47.457342 77.412752,43.072223 72.614562,38.687112 70.215472,32.872069 70.215482,25.627075 70.215472,18.763438 72.836172,13.243911 78.077562,9.0684812 83.318942,4.8931312 90.256062,2.8054312 98.888962,2.8053912 102.20333,2.8054312 105.45029,3.1772112 108.62985,3.9207312 111.80932,4.6643412 114.99847,5.8178212 118.19731,7.3811712 L 118.19731,-6.2317688 C 118.19726,-9.9685988 117.23377,-12.637799 115.30684,-14.239379 113.37981,-15.840839 110.23884,-16.641599 105.8839,-16.641659 102.06844,-16.641599 98.898562,-16.203089 96.374252,-15.326129 93.849882,-14.449039 91.450792,-12.942849 89.176972,-10.807549 88.830092,-10.464309 88.348352,-9.9876588 87.731742,-9.3776188 85.149562,-6.8227488 83.029892,-5.5453488 81.372702,-5.5453988 80.524812,-5.5453488 79.821472,-5.8217988 79.262652,-6.3747588 78.703822,-6.9276088 78.424412,-7.5853788 78.424422,-8.3480688 78.424412,-11.512919 81.690642,-14.410909 88.223122,-17.042039 94.755562,-19.673049 102.608,-20.988579 111.78046,-20.988649 117.36866,-20.988579 122.51369,-20.521469 127.21558,-19.587319 131.91735,-18.653029 135.73277,-17.366099 138.66185,-15.726509 140.93562,-14.429979 142.78552,-13.133509 144.21156,-11.837099 145.63745,-10.540569 146.79364,-9.1106388 147.68012,-7.5472988 148.29668,-6.4033088 148.75915,-4.7064588 149.06755,-2.4567488 149.37579,-0.20694882 149.52994,2.5957112 149.53003,5.9512412 L 149.53003,33.577485 C 149.52994,36.742408 149.76119,39.34488 150.22374,41.384904 150.68613,43.424943 151.41838,45.436374 152.4205,47.419209 z"
       id="path3007"
       style="font-size:44.92314148px;font-style:normal;font-variant:normal;font-weight:normal;font-stretch:normal;line-height:125%;letter-spacing:0px;word-spacing:0px;fill:#666666;fill-opacity:1;stroke:none;font-family:Broadway BT;-inkscape-font-specification:Broadway BT" />
    <path
       d="M 181.72988,32.605133 171.61323,22.023651 C 166.91138,17.028461 163.55844,12.757741 161.55439,9.2114812 159.55032,5.6652912 158.54829,2.2715912 158.54829,-0.96962882 158.54829,-6.8036888 161.12081,-11.598719 166.26585,-15.354719 171.41088,-19.110609 178.03005,-20.988579 186.12339,-20.988649 192.13554,-20.988579 197.58889,-19.959029 202.48346,-17.899999 207.37796,-15.840839 209.8252,-13.857999 209.82526,-11.951489 209.8252,-11.379459 209.59386,-10.883749 209.13155,-10.464359 208.66902,-10.044859 208.1102,-9.8351388 207.45507,-9.8351888 207.10816,-9.8351388 204.94995,-11.064869 200.98043,-13.524409 197.0108,-15.983829 193.09904,-17.213569 189.24511,-17.213629 187.47225,-17.213569 186.03666,-16.822719 184.9383,-16.041089 183.83989,-15.259329 183.29071,-14.220249 183.29073,-12.923839 183.29071,-11.207869 185.12133,-8.5195988 188.78264,-4.8590388 189.24508,-4.4014088 189.59194,-4.0391588 189.8232,-3.7722888 L 202.7147,9.4402712 C 206.22175,13.024661 208.85208,16.504151 210.6057,19.878754 212.35919,23.253414 213.23595,26.504118 213.23603,29.63088 213.23595,35.541269 210.62491,40.355363 205.40285,44.073172 200.18069,47.790992 193.29172,49.649897 184.73597,49.6499 181.15176,49.649897 177.46159,49.096992 173.66546,47.991183 169.86929,46.885371 166.33329,45.321981 163.05743,43.301011 161.70854,42.500254 160.69687,41.709029 160.02243,40.927326 159.34799,40.145639 159.01077,39.373477 159.01077,38.610841 159.01077,37.962614 159.21309,37.409709 159.61777,36.952121 160.02243,36.494554 160.53308,36.265767 161.14972,36.265754 161.92051,36.265767 163.05742,36.875868 164.56048,38.096067 166.06351,39.31628 167.2197,40.193303 168.02904,40.727136 170.57264,42.328664 173.03918,43.54887 175.42865,44.387759 177.81808,45.226653 180.01484,45.646098 182.01893,45.646095 184.13857,45.646098 185.81504,45.312447 187.04834,44.645146 188.28158,43.977848 188.8982,43.072226 188.89826,41.928278 188.8982,40.78434 186.93269,38.134207 183.00168,33.977866 182.50065,33.44404 182.0767,32.986463 181.72988,32.605133 z"
       id="path3009"
       style="font-size:44.92314148px;font-style:normal;font-variant:normal;font-weight:normal;font-stretch:normal;line-height:125%;letter-spacing:0px;word-spacing:0px;fill:#666666;fill-opacity:1;stroke:none;font-family:Broadway BT;-inkscape-font-specification:Broadway BT" />
    <path
       d="M 248.03732,12.528911 263.8771,12.528911 263.8771,-10.693149 C 263.87704,-13.171639 263.27969,-14.878019 262.085,-15.812299 260.89024,-16.746459 258.77055,-17.213569 255.72597,-17.213629 252.874,-17.213569 250.87958,-16.746459 249.74269,-15.812299 248.60574,-14.878019 248.03727,-13.171639 248.03732,-10.693149 z M 248.03732,16.246731 248.03732,38.496445 C 248.03727,41.394445 248.52866,43.329613 249.51145,44.301962 250.49419,45.274317 252.37299,45.760492 255.14788,45.760492 258.57787,45.760492 262.06568,45.093193 265.61137,43.758588 269.15698,42.423991 272.41358,40.555553 275.38117,38.153263 277.50081,36.399227 279.64938,34.206669 281.82694,31.575584 284.00436,28.94453 285.51702,27.628997 286.36498,27.628976 287.05861,27.628997 287.62708,27.867307 288.07035,28.343941 288.51347,28.820603 288.73509,29.402108 288.73517,30.088457 288.73509,31.118022 288.19553,32.347761 287.11649,33.777675 286.03731,35.207618 284.24522,36.990262 281.74023,39.125615 277.8091,42.557451 273.5505,45.169457 268.96432,46.961631 264.37807,48.753809 259.65697,49.649897 254.80103,49.6499 251.02411,49.649897 247.38212,49.106526 243.87504,48.01978 240.36791,46.933034 237.05349,45.321981 233.9318,43.186617 229.30704,40.021712 225.68432,35.893986 223.06363,30.803422 220.44295,25.712893 219.13259,20.231498 219.13259,14.359231 219.13259,9.3259112 220.12498,4.5785412 222.10978,0.11712118 224.09455,-4.3442088 226.97539,-8.2908088 230.75228,-11.722699 234.02815,-14.735029 237.77611,-17.032439 241.99624,-18.614969 246.21629,-20.197349 250.71578,-20.988579 255.49474,-20.988649 265.59205,-20.988579 273.86844,-17.566289 280.32387,-10.721749 286.7792,-3.8770988 290.18033,5.1123912 290.52724,16.246731 z"
       id="path3011"
       style="font-size:44.92314148px;font-style:normal;font-variant:normal;font-weight:normal;font-stretch:normal;line-height:125%;letter-spacing:0px;word-spacing:0px;fill:#666666;fill-opacity:1;stroke:none;font-family:Broadway BT;-inkscape-font-specification:Broadway BT" />
    <path
       d="M 331.51414,34.092262 C 331.51412,34.244804 331.56234,35.789123 331.65857,38.725235 331.75477,41.661363 331.84173,44.540286 331.91869,47.362012 L 299.95006,47.362012 C 299.98856,44.88347 300.03676,42.14754 300.09448,39.154213 300.15218,36.160903 300.18118,34.473589 300.18118,34.092262 L 300.18118,-5.4310088 C 300.18118,-5.8122688 300.15218,-7.4995888 300.09448,-10.492959 300.03678,-13.486219 299.98853,-16.241219 299.95006,-18.757959 L 331.91869,-18.757959 C 331.84149,-16.508139 331.774,-14.334649 331.71628,-12.237479 331.65858,-10.140189 331.5911,-8.1001588 331.51388,-6.1173788 335.44487,-10.883749 339.27956,-14.439509 343.01796,-16.784649 346.75624,-19.129669 350.47532,-20.302219 354.17518,-20.302279 356.14064,-20.302219 357.73041,-19.806509 358.94446,-18.815149 360.15839,-17.823669 360.76539,-16.527199 360.76547,-14.925749 360.76539,-13.591079 360.38962,-12.571069 359.63817,-11.865689 358.88659,-11.160199 357.81711,-10.807489 356.42975,-10.807549 355.77452,-10.807489 354.60869,-11.103009 352.93229,-11.694099 351.25573,-12.285079 349.76234,-12.580599 348.45204,-12.580659 345.8313,-12.580599 343.0179,-11.484319 340.01186,-9.2918188 337.00573,-7.0992088 334.17307,-4.0963588 331.51388,-0.28325882 z"
       id="path3013"
       style="font-size:44.92314148px;font-style:normal;font-variant:normal;font-weight:normal;font-stretch:normal;line-height:125%;letter-spacing:0px;word-spacing:0px;fill:#666666;fill-opacity:1;stroke:none;font-family:Broadway BT;-inkscape-font-specification:Broadway BT" />
    <path
       d="M 442.45046,43.644194 453.43424,43.644194 C 461.48896,43.644197 467.7131,42.166604 472.1067,39.211412 476.50014,36.256233 478.69688,32.090374 478.69696,26.713821 478.69688,23.434538 477.76232,20.650945 475.89321,18.363031 474.02398,16.075171 471.27802,14.321131 467.65536,13.100891 466.49912,13.291581 465.48744,13.434571 464.62037,13.529861 463.75317,13.625261 462.95346,13.672891 462.22127,13.672861 459.52345,13.672901 457.36523,13.205791 455.74663,12.271531 454.12789,11.337351 453.31857,10.126671 453.31862,8.6395112 453.31857,7.9913112 453.4438,7.5337412 453.69439,7.2667812 453.94476,6.9999012 454.37842,6.8664312 454.9951,6.8664012 455.3419,6.8664312 456.49808,7.2954212 458.46367,8.1533312 460.42913,9.0113312 462.27902,9.4403112 464.01337,9.4402712 469.13908,9.4403112 473.45551,7.7911212 476.96269,4.4927112 480.46971,1.1943912 482.22328,-2.9333388 482.22336,-7.8904788 482.22328,-15.097269 479.3328,-20.836049 473.55194,-25.106839 467.77092,-29.377489 459.92812,-31.512849 450.02349,-31.512929 L 442.45046,-31.512929 z M 405.27898,47.362012 C 405.31748,44.88347 405.36568,42.14754 405.4234,39.154213 405.4811,36.160903 405.5101,34.473589 405.5101,34.092262 L 405.5101,-21.903799 C 405.5101,-22.323179 405.4811,-24.029559 405.4234,-27.022949 405.3657,-30.016199 405.31746,-32.752129 405.27898,-35.230749 L 450.02349,-35.287949 C 461.04575,-35.287869 469.82316,-32.809319 476.35569,-27.852309 482.88807,-22.895149 486.1543,-16.279349 486.1544,-8.0048788 486.1543,-3.4671788 485.05594,0.43175118 482.85924,3.6919512 480.66242,6.9522312 477.40582,9.5356312 473.08946,11.442171 476.44231,13.272511 478.87994,15.388811 480.40235,17.79106 481.92457,20.19337 482.68575,23.167623 482.68583,26.713824 482.68575,33.272453 480.14212,38.362998 475.05497,41.985478 469.96767,45.607971 462.76078,47.419212 453.43424,47.419212 z"
       id="path3015"
       style="font-size:44.92314148px;font-style:normal;font-variant:normal;font-weight:normal;font-stretch:normal;line-height:125%;letter-spacing:0px;word-spacing:0px;fill:#666666;fill-opacity:1;stroke:none;font-family:Broadway BT;-inkscape-font-specification:Broadway BT" />
    <path
       d="M 526.44757,45.760492 527.14128,45.760492 C 536.69906,45.760492 544.63821,42.757642 550.95876,36.751931 557.2792,30.746241 560.43945,23.282014 560.43951,14.359231 560.43945,5.5127712 557.28882,-1.9228588 550.98767,-7.9476888 544.68639,-13.972399 536.81468,-16.984779 527.37251,-16.984839 L 526.44757,-16.984839 z M 492.68684,14.359231 C 492.68684,9.5928312 493.5829,5.0837912 495.375,0.83209118 497.16707,-3.4195188 499.77814,-7.2612688 503.20818,-10.693149 506.59964,-14.010529 510.45359,-16.555799 514.77005,-18.328979 519.08646,-20.102019 523.65341,-20.988579 528.4709,-20.988649 533.24975,-20.988579 537.79745,-20.102019 542.11393,-18.328979 546.43031,-16.555799 550.28426,-14.010529 553.6758,-10.693149 557.02868,-7.3756588 559.60121,-3.5529788 561.39336,0.77489118 563.18538,5.1028512 564.08144,9.6309612 564.08149,14.359231 564.08144,19.125688 563.18538,23.644262 561.39336,27.914963 559.60121,32.185704 557.02868,35.998846 553.6758,39.354403 550.28426,42.709978 546.43993,45.264784 542.14281,47.018828 537.8456,48.772875 533.28831,49.649897 528.4709,49.6499 523.61486,49.649897 519.02866,48.782408 514.71226,47.047428 510.3958,45.312447 506.56111,42.786241 503.20818,39.468799 499.77814,36.036976 497.16707,32.195235 495.375,27.94356 493.5829,23.691925 492.68684,19.163818 492.68684,14.359231 z"
       id="path3017"
       style="font-size:44.92314148px;font-style:normal;font-variant:normal;font-weight:normal;font-stretch:normal;line-height:125%;letter-spacing:0px;word-spacing:0px;fill:#666666;fill-opacity:1;stroke:none;font-family:Broadway BT;-inkscape-font-specification:Broadway BT" />
    <path
       d="M 607.43858,-39.577739 C 607.40008,-38.243049 607.30365,-36.241149 607.14955,-33.572029 606.84117,-26.784559 606.6292,-21.865599 606.51364,-18.815149 L 609.57753,-18.757949 C 611.88987,-18.757879 614.2215,-18.853149 616.57247,-19.043939 617.15051,-19.082039 617.51666,-19.101039 617.67086,-19.101139 618.48013,-19.101069 619.11605,-18.938999 619.57857,-18.614959 620.04099,-18.290779 620.27223,-17.823669 620.27228,-17.213629 620.27223,-16.222149 620.07963,-15.488119 619.69419,-15.011539 619.30873,-14.534829 618.71137,-14.296509 617.9021,-14.296569 617.7864,-14.296509 617.42031,-14.315569 616.80371,-14.353769 613.33511,-14.544359 609.90507,-14.639689 606.51364,-14.639759 L 605.81993,36.265757 C 605.81988,38.401129 606.11855,39.954985 606.71596,40.92733 607.31329,41.899689 608.26715,42.385864 609.57753,42.385859 610.84931,42.385864 612.06328,41.956886 613.21952,41.098923 614.37568,40.240972 615.64748,38.801509 617.03495,36.780534 617.45884,36.17044 617.95984,35.331548 618.53801,34.263856 619.65558,32.166641 620.77323,31.118025 621.89094,31.11801 622.50753,31.118025 622.99889,31.318218 623.36509,31.718581 623.73116,32.118977 623.91422,32.624218 623.91427,33.234307 623.91422,34.187606 623.26868,35.598469 621.97767,37.466899 620.68653,39.33535 619.03896,41.127528 617.03495,42.843436 614.60691,45.016933 611.57193,46.694717 607.92997,47.87679 604.28793,49.058866 600.30873,49.649901 595.99233,49.649903 588.86245,49.649901 583.50546,47.829126 579.92129,44.187572 576.3371,40.546023 574.54501,35.102761 574.54501,27.85777 L 574.54501,27.171402 575.00748,-13.838989 C 573.19612,-13.838929 571.30767,-13.800789 569.34216,-13.724599 568.91822,-13.724539 568.64845,-13.724539 568.53283,-13.724599 567.33809,-13.724539 566.44206,-13.953339 565.8447,-14.410969 565.24732,-14.868479 564.94864,-15.535779 564.94864,-16.412869 564.94864,-16.984779 565.20876,-17.461419 565.72909,-17.842799 566.24935,-18.224049 566.89489,-18.414699 567.66568,-18.414769 568.12816,-18.414699 568.92786,-18.376569 570.06478,-18.300379 571.2017,-18.224079 572.09773,-18.185929 572.75291,-18.185979 573.40809,-18.185919 573.89947,-18.194979 574.22706,-18.214579 574.55465,-18.233579 574.85333,-18.262179 575.1231,-18.300379 L 575.1231,-25.907609 C 580.51865,-27.966629 585.91417,-30.140119 591.30975,-32.428089 596.70528,-34.715889 602.08154,-37.099109 607.43858,-39.577739 z"
       id="path3019"
       style="font-size:44.92314148px;font-style:normal;font-variant:normal;font-weight:normal;font-stretch:normal;line-height:125%;letter-spacing:0px;word-spacing:0px;fill:#666666;fill-opacity:1;stroke:none;font-family:Broadway BT;-inkscape-font-specification:Broadway BT" />
    <path
       d="M -44.845867,-93.095338 654.25124,-93.095338 654.25124,262.19449 -44.845867,262.19449 z"
       id="rect2991"
       style="fill:none;stroke:#000000;stroke-width:0.90289205;stroke-miterlimit:4;stroke-opacity:1" />
    <path
       d="M 106.74113,124.0715 106.74113,86.394827 114.34843,86.394827 114.34843,103.12572 129.71721,86.394827 139.94593,86.394827 125.75936,101.06974 140.71694,124.0715 130.87372,124.0715 120.5165,106.3897 114.34843,112.68624 114.34843,124.0715 z"
       id="path3078"
       style="font-size:19.42287254px;font-style:normal;font-variant:normal;font-weight:bold;font-stretch:normal;line-height:125%;letter-spacing:0px;word-spacing:0px;fill:#333333;fill-opacity:1;stroke:none;font-family:Arial;-inkscape-font-specification:Arial Bold" />
    <path
       d="M 151.81947,86.394827 151.81947,100.24731 C 154.14962,97.523099 156.93382,96.160995 160.17207,96.16097 161.834,96.160995 163.33318,96.469376 164.66963,97.086187 166.00602,97.703022 167.01261,98.491143 167.68941,99.450621 168.36616,100.4101 168.82877,101.47239 169.07724,102.63744 169.32563,103.80254 169.44985,105.61012 169.44988,108.06018 L 169.44988,124.0715 162.22811,124.0715 162.22811,109.65363 C 162.22808,106.79235 162.09101,104.97618 161.8169,104.20514 161.54274,103.43415 161.05873,102.82163 160.36483,102.36757 159.6709,101.91355 158.80137,101.68653 157.75624,101.6865 156.55688,101.68653 155.48604,101.9778 154.5437,102.56032 153.60135,103.14287 152.91173,104.02097 152.47483,105.19463 152.03791,106.36827 151.81946,108.10306 151.81947,110.39895 L 151.81947,124.0715 144.59769,124.0715 144.59769,86.394827 z"
       id="path3080"
       style="font-size:19.42287254px;font-style:normal;font-variant:normal;font-weight:bold;font-stretch:normal;line-height:125%;letter-spacing:0px;word-spacing:0px;fill:#333333;fill-opacity:1;stroke:none;font-family:Arial;-inkscape-font-specification:Arial Bold" />
    <path
       d="M 175.12966,110.03912 C 175.12966,107.64043 175.72077,105.31887 176.90297,103.07435 178.08519,100.82986 179.75997,99.116519 181.92738,97.934266 184.09478,96.752109 186.5149,96.160995 189.18773,96.16097 193.31689,96.160995 196.70076,97.501673 199.33936,100.18305 201.97786,102.86448 203.29718,106.25263 203.2972,110.34753 203.29718,114.47674 201.96502,117.89912 199.30081,120.61479 196.63651,123.33046 193.2826,124.68831 189.23914,124.68831 186.73763,124.68831 184.35177,124.12292 182.08158,122.99206 179.81138,121.86125 178.08519,120.20362 176.90297,118.01906 175.72077,115.83455 175.12966,113.17455 175.12966,110.03912 z M 182.53134,110.42462 C 182.53134,113.13174 183.17385,115.20488 184.45887,116.64412 185.74386,118.08331 187.32873,118.80294 189.2134,118.80294 191.09811,118.80294 192.67866,118.08331 193.95512,116.64412 195.23156,115.20488 195.86979,113.11459 195.86979,110.3732 195.86979,107.70041 195.23156,105.6444 193.95512,104.20514 192.67866,102.76597 191.09811,102.04635 189.2134,102.04632 187.32873,102.04635 185.74386,102.76597 184.45887,104.20514 183.17385,105.6444 182.53134,107.71754 182.53134,110.42462 z"
       id="path3082"
       style="font-size:19.42287254px;font-style:normal;font-variant:normal;font-weight:bold;font-stretch:normal;line-height:125%;letter-spacing:0px;word-spacing:0px;fill:#333333;fill-opacity:1;stroke:none;font-family:Arial;-inkscape-font-specification:Arial Bold" />
    <path
       d="M 214.37401,105.10466 207.82045,103.92243 C 208.55719,101.2839 209.82506,99.330681 211.62409,98.062772 213.4231,96.794912 216.09593,96.160995 219.64258,96.16097 222.86366,96.160995 225.26238,96.54217 226.83866,97.304619 228.41493,98.067091 229.52432,99.035111 230.16686,100.20875 230.80934,101.38241 231.13061,103.53696 231.13061,106.67238 L 231.05353,115.10209 C 231.0535,117.50079 231.16913,119.26984 231.40047,120.40922 231.63173,121.54859 232.06438,122.76936 232.69833,124.0715 L 225.55367,124.0715 C 225.36514,123.59174 225.13386,122.88068 224.85975,121.93836 224.73978,121.51004 224.65414,121.22735 224.60275,121.09026 223.36912,122.28962 222.04983,123.18911 220.64491,123.78879 219.23992,124.38847 217.74073,124.68831 216.14734,124.68831 213.33743,124.68831 211.12292,123.92587 209.50382,122.40097 207.8847,120.8761 207.07515,118.94855 207.07515,116.61838 207.07515,115.0764 207.44349,113.70143 208.18023,112.49351 208.91697,111.28558 209.94928,110.36039 211.27712,109.71788 212.60499,109.07537 214.51962,108.51425 217.02116,108.03449 220.39644,107.40057 222.73517,106.80948 224.03733,106.26119 L 224.03733,105.54155 C 224.03733,104.15377 223.69466,103.16432 223.00933,102.57318 222.32397,101.98209 221.03039,101.68653 219.12857,101.6865 217.84355,101.68653 216.84126,101.93927 216.12166,102.44468 215.40201,102.95014 214.8195,103.83682 214.37401,105.10466 z M 224.03733,110.96434 C 223.11212,111.27274 221.6472,111.64113 219.64258,112.06946 217.63797,112.49778 216.32721,112.91758 215.71044,113.32877 214.76809,113.99698 214.2969,114.84508 214.2969,115.87308 214.2969,116.88398 214.67385,117.75778 215.42771,118.49451 216.1816,119.23126 217.14107,119.59965 218.30615,119.59965 219.60832,119.59965 220.85049,119.1713 222.03269,118.31463 222.90651,117.66356 223.48047,116.86685 223.75463,115.9245 223.94307,115.30769 224.03733,114.13405 224.03733,112.40353 z M 218.25477,90.60967 C 219.23136,90.506933 219.85675,90.412665 220.13089,90.326986 221.03895,90.104283 221.50156,89.710223 221.5187,89.14478 221.53582,88.750745 221.29595,88.416643 220.79911,88.14245 220.07948,87.748414 218.9401,87.551384 217.38095,87.55136 216.84982,87.551384 216.04452,87.585646 214.96511,87.654145 L 214.68241,85.032723 C 215.35063,84.8957 216.58424,84.835741 218.38327,84.852799 220.49067,84.869979 222.21262,85.212671 223.54902,85.880826 225.02248,86.600471 225.77637,87.602802 225.81066,88.887792 225.87918,90.669677 224.32003,91.757662 221.13319,92.151698 L 221.13319,93.436713 218.25477,93.436713 218.25477,90.60967 z"
       id="path3084"
       style="font-size:19.42287254px;font-style:normal;font-variant:normal;font-weight:bold;font-stretch:normal;line-height:125%;letter-spacing:0px;word-spacing:0px;fill:#333333;fill-opacity:1;stroke:none;font-family:Arial;-inkscape-font-specification:Arial Bold" />
    <path
       d="M 263.1018,124.0715 255.88002,124.0715 255.88002,110.14193 C 255.88002,107.19497 255.72579,105.28888 255.41738,104.42362 255.10898,103.55841 254.60784,102.88589 253.91395,102.40615 253.22003,101.92641 252.38477,101.68653 251.40816,101.6865 250.1574,101.68653 249.03514,102.02922 248.04144,102.71453 247.04764,103.39991 246.36659,104.30797 245.99825,105.43876 245.62985,106.5696 245.44569,108.65986 245.44569,111.70963 L 245.44569,124.0715 238.22392,124.0715 238.22392,96.777757 244.93168,96.777757 244.93168,100.78703 C 247.31322,97.703022 250.3116,96.160995 253.92678,96.16097 255.52018,96.160995 256.97654,96.44795 258.29583,97.021934 259.61512,97.595893 260.61312,98.328375 261.28991,99.219281 261.96668,100.11026 262.43787,101.12111 262.70343,102.25192 262.96899,103.38278 263.10177,105.0019 263.1018,107.10929 z"
       id="path3086"
       style="font-size:19.42287254px;font-style:normal;font-variant:normal;font-weight:bold;font-stretch:normal;line-height:125%;letter-spacing:0px;word-spacing:0px;fill:#333333;fill-opacity:1;stroke:none;font-family:Arial;-inkscape-font-specification:Arial Bold" />
    <path
       d="M 277.64818,86.394827 277.64818,100.24731 C 279.97832,97.523099 282.76252,96.160995 286.00079,96.16097 287.66272,96.160995 289.1619,96.469376 290.49834,97.086187 291.83472,97.703022 292.84131,98.491143 293.51811,99.450621 294.19488,100.4101 294.65745,101.47239 294.90592,102.63744 295.15435,103.80254 295.27857,105.61012 295.2786,108.06018 L 295.2786,124.0715 288.0568,124.0715 288.0568,109.65363 C 288.05677,106.79235 287.91971,104.97618 287.64559,104.20514 287.37145,103.43415 286.88744,102.82163 286.19352,102.36757 285.49961,101.91355 284.6301,101.68653 283.58496,101.6865 282.38558,101.68653 281.31473,101.9778 280.37243,102.56032 279.43008,103.14287 278.74041,104.02097 278.30355,105.19463 277.86663,106.36827 277.64818,108.10306 277.64818,110.39895 L 277.64818,124.0715 270.42641,124.0715 270.42641,86.394827 z"
       id="path3088"
       style="font-size:19.42287254px;font-style:normal;font-variant:normal;font-weight:bold;font-stretch:normal;line-height:125%;letter-spacing:0px;word-spacing:0px;fill:#333333;fill-opacity:1;stroke:none;font-family:Arial;-inkscape-font-specification:Arial Bold" />
    <path
       d="M 317.38083,124.0715 317.38083,86.394827 324.98815,86.394827 324.98815,103.12572 340.35692,86.394827 350.58568,86.394827 336.39908,101.06974 351.35667,124.0715 341.51344,124.0715 331.15622,106.3897 324.98815,112.68624 324.98815,124.0715 z"
       id="path3090"
       style="font-size:19.42287254px;font-style:normal;font-variant:normal;font-weight:bold;font-stretch:normal;line-height:125%;letter-spacing:0px;word-spacing:0px;fill:#333333;fill-opacity:1;stroke:none;font-family:Arial;-inkscape-font-specification:Arial Bold" />
    <path
       d="M 362.45921,86.394827 362.45921,100.24731 C 364.78937,97.523099 367.57354,96.160995 370.81181,96.16097 372.47377,96.160995 373.97292,96.469376 375.30936,97.086187 376.64575,97.703022 377.65234,98.491143 378.32916,99.450621 379.0059,100.4101 379.4685,101.47239 379.71697,102.63744 379.96538,103.80254 380.08957,105.61012 380.08962,108.06018 L 380.08962,124.0715 372.86785,124.0715 372.86785,109.65363 C 372.86783,106.79235 372.73074,104.97618 372.45662,104.20514 372.18247,103.43415 371.69844,102.82163 371.00458,102.36757 370.31063,101.91355 369.44113,101.68653 368.39596,101.6865 367.19663,101.68653 366.12578,101.9778 365.18345,102.56032 364.2411,103.14287 363.55146,104.02097 363.11457,105.19463 362.67762,106.36827 362.45918,108.10306 362.45921,110.39895 L 362.45921,124.0715 355.23741,124.0715 355.23741,86.394827 z"
       id="path3092"
       style="font-size:19.42287254px;font-style:normal;font-variant:normal;font-weight:bold;font-stretch:normal;line-height:125%;letter-spacing:0px;word-spacing:0px;fill:#333333;fill-opacity:1;stroke:none;font-family:Arial;-inkscape-font-specification:Arial Bold" />
    <path
       d="M 392.83696,105.10466 386.28337,103.92243 C 387.0201,101.2839 388.28799,99.330681 390.08701,98.062772 391.88605,96.794912 394.55887,96.160995 398.10551,96.16097 401.3266,96.160995 403.72531,96.54217 405.3016,97.304619 406.87789,98.067091 407.98726,99.035111 408.62981,100.20875 409.27228,101.38241 409.59352,103.53696 409.59354,106.67238 L 409.51644,115.10209 C 409.51641,117.50079 409.63207,119.26984 409.86341,120.40922 410.0947,121.54859 410.52728,122.76936 411.16127,124.0715 L 404.01658,124.0715 C 403.82812,123.59174 403.59681,122.88068 403.32269,121.93836 403.20275,121.51004 403.11706,121.22735 403.06566,121.09026 401.83204,122.28962 400.51278,123.18911 399.10782,123.78879 397.70286,124.38847 396.20371,124.68831 394.61027,124.68831 391.80036,124.68831 389.58585,123.92587 387.96676,122.40097 386.34761,120.8761 385.53806,118.94855 385.53806,116.61838 385.53806,115.0764 385.90644,113.70143 386.64319,112.49351 387.37991,111.28558 388.41221,110.36039 389.74006,109.71788 391.06791,109.07537 392.98259,108.51425 395.48408,108.03449 398.85938,107.40057 401.1981,106.80948 402.50027,106.26119 L 402.50027,105.54155 C 402.50024,104.15377 402.15758,103.16432 401.47225,102.57318 400.78692,101.98209 399.49332,101.68653 397.59151,101.6865 396.3065,101.68653 395.30419,101.93927 394.58459,102.44468 393.86496,102.95014 393.28242,103.83682 392.83696,105.10466 z M 402.50027,110.96434 C 401.57504,111.27274 400.11013,111.64113 398.10551,112.06946 396.10089,112.49778 394.79019,112.91758 394.17338,113.32877 393.23099,113.99698 392.75983,114.84508 392.75986,115.87308 392.75983,116.88398 393.13677,117.75778 393.8907,118.49451 394.64451,119.23126 395.60402,119.59965 396.7691,119.59965 398.07124,119.59965 399.31342,119.1713 400.49565,118.31463 401.36944,117.66356 401.94342,116.86685 402.21756,115.9245 402.40605,115.30769 402.50024,114.13405 402.50027,112.40353 z M 402.80866,85.752319 406.32962,85.752319 C 406.12398,88.082516 405.30588,89.911524 403.87524,91.239342 402.44454,92.567209 400.58985,93.231142 398.31111,93.231118 396.03235,93.231142 394.17766,92.567209 392.74699,91.239342 391.31635,89.911524 390.49824,88.082516 390.29261,85.752319 L 393.81356,85.752319 C 393.9335,86.968835 394.36183,87.889757 395.09858,88.515133 395.8353,89.140534 396.90616,89.45321 398.31111,89.453186 399.71607,89.45321 400.78692,89.140534 401.52365,88.515133 402.2604,87.889757 402.68873,86.968835 402.80866,85.752319 z M 394.99577,84.364494 398.31111,77.117013 406.40672,77.117013 399.57042,84.364494 z"
       id="path3094"
       style="font-size:19.42287254px;font-style:normal;font-variant:normal;font-weight:bold;font-stretch:normal;line-height:125%;letter-spacing:0px;word-spacing:0px;fill:#333333;fill-opacity:1;stroke:none;font-family:Arial;-inkscape-font-specification:Arial Bold" />
    <path
       d="M 440.53675,104.84767 433.41774,106.13268 C 433.17786,104.71062 432.6339,103.63977 431.7858,102.92012 430.93765,102.20055 429.8368,101.84075 428.4833,101.84073 426.68422,101.84075 425.24933,102.46183 424.17851,103.704 423.10763,104.94618 422.57223,107.02364 422.57223,109.93631 422.57223,113.17455 423.11619,115.46189 424.20419,116.7983 425.29217,118.13473 426.7528,118.80294 428.58608,118.80294 429.95674,118.80294 431.07902,118.41312 431.95283,117.63357 432.82661,116.85399 433.44345,115.51331 433.80326,113.61146 L 440.89653,114.81938 C 440.15976,118.07475 438.74624,120.53343 436.65598,122.19537 434.56567,123.85732 431.76434,124.68831 428.25198,124.68831 424.25984,124.68831 421.0773,123.42899 418.70433,120.91036 416.33134,118.39174 415.14483,114.90504 415.14483,110.45031 415.14483,105.94422 416.33562,102.43614 418.71714,99.926041 421.0987,97.415994 424.31982,96.160995 428.38048,96.16097 431.70436,96.160995 434.34722,96.876296 436.30904,98.306924 438.27077,99.737601 439.68,101.91784 440.53675,104.84767 z"
       id="path3096"
       style="font-size:19.42287254px;font-style:normal;font-variant:normal;font-weight:bold;font-stretch:normal;line-height:125%;letter-spacing:0px;word-spacing:0px;fill:#333333;fill-opacity:1;stroke:none;font-family:Arial;-inkscape-font-specification:Arial Bold" />
    <path
       d="M 115.11943,189.86428 115.11943,158.56131 103.9398,158.56131 103.9398,152.18763 133.88066,152.18763 133.88066,158.56131 122.72673,158.56131 122.72673,189.86428 z"
       id="path3098"
       style="font-size:19.42287254px;font-style:normal;font-variant:normal;font-weight:bold;font-stretch:normal;line-height:125%;letter-spacing:0px;word-spacing:0px;fill:#333333;fill-opacity:1;stroke:none;font-family:Arial;-inkscape-font-specification:Arial Bold" />
    <path
       d="M 145.9598,152.18763 145.9598,166.04009 C 148.28995,163.3159 151.07415,161.95377 154.3124,161.95375 155.97434,161.95377 157.47352,162.26218 158.80996,162.87897 160.14635,163.4958 161.15295,164.28392 161.82975,165.2434 162.5065,166.20288 162.9691,167.26519 163.21755,168.43022 163.46597,169.59532 163.59019,171.40292 163.59021,173.85299 L 163.59021,189.86428 156.36842,189.86428 156.36842,175.44643 C 156.3684,172.58513 156.23134,170.76898 155.95722,169.99797 155.68307,169.22695 155.19904,168.61444 154.50516,168.16037 153.81123,167.70633 152.9417,167.47933 151.89657,167.4793 150.69721,167.47933 149.62636,167.77058 148.68404,168.3531 147.74168,168.93568 147.05205,169.8138 146.61516,170.98741 146.17825,172.16105 145.95979,173.89584 145.9598,176.19172 L 145.9598,189.86428 138.73802,189.86428 138.73802,152.18763 z"
       id="path3100"
       style="font-size:19.42287254px;font-style:normal;font-variant:normal;font-weight:bold;font-stretch:normal;line-height:125%;letter-spacing:0px;word-spacing:0px;fill:#333333;fill-opacity:1;stroke:none;font-family:Arial;-inkscape-font-specification:Arial Bold" />
    <path
       d="M 198.05434,162.57056 205.27611,162.57056 205.27611,167.73634 C 205.27608,169.86089 205.0919,171.52286 204.72356,172.72217 204.35516,173.92153 203.67408,174.99236 202.6804,175.93474 201.15547,177.40822 198.79961,178.40196 195.61279,178.91593 L 195.61279,189.86428 188.90503,189.86428 188.90503,185.77792 C 186.7633,188.91337 183.74781,190.48109 179.85851,190.48109 175.83212,190.48109 173.13359,188.94763 171.76292,185.88073 171.11184,184.42438 170.7863,182.4112 170.7863,179.84115 L 170.7863,162.57056 178.0081,162.57056 178.0081,175.11233 C 178.00807,178.71036 178.14512,181.05764 178.41929,182.15417 178.60776,182.9766 179.08748,183.66193 179.85851,184.21022 180.56096,184.72422 181.45191,184.98126 182.53134,184.98126 183.74781,184.98126 184.84864,184.64713 185.83384,183.97893 186.81899,183.31072 187.49148,182.47116 187.8513,181.46027 188.21111,180.44942 188.39099,177.99076 188.39101,174.08428 L 188.39101,162.57056 195.61279,162.57056 195.61279,175.98613 C 197.99434,175.50639 199.66485,174.61543 200.62435,173.31329 201.20686,172.52517 201.51526,171.3515 201.54958,169.79232 L 198.05434,169.79232 z"
       id="path3102"
       style="font-size:19.42287254px;font-style:normal;font-variant:normal;font-weight:bold;font-stretch:normal;line-height:125%;letter-spacing:0px;word-spacing:0px;fill:#333333;fill-opacity:1;stroke:none;font-family:Arial;-inkscape-font-specification:Arial Bold" />
    <path
       d="M 214.81094,176.21742 C 214.81094,178.83887 215.45342,180.912 216.73847,182.4369 217.95493,183.87612 219.53976,184.59571 221.49303,184.59571 223.4462,184.59571 225.02248,183.87612 226.22188,182.4369 227.50684,180.912 228.14938,178.82171 228.14941,176.166 228.14938,173.56171 227.50684,171.50573 226.22188,169.99797 225.02248,168.55875 223.4462,167.83913 221.49303,167.8391 219.53976,167.83913 217.95493,168.55875 216.73847,169.99797 215.45342,171.52286 214.81094,173.596 214.81094,176.21742 z M 235.49968,162.57056 242.72148,162.57056 242.72148,167.73634 C 242.72142,169.86089 242.53721,171.52286 242.1689,172.72217 241.80047,173.92153 241.11942,174.99236 240.12575,175.93474 238.97775,177.04842 237.41004,177.92222 235.42257,178.55616 234.9942,181.62306 233.71774,184.23594 231.59324,186.39476 228.92036,189.11899 225.5622,190.48109 221.5187,190.48109 218.93155,190.48109 216.54997,189.91567 214.37404,188.78486 212.06099,187.58553 210.32193,185.9107 209.15685,183.76045 207.9918,181.61022 207.40926,178.96735 207.40926,175.8319 207.40926,173.36471 208.00035,171.0431 209.18255,168.86715 210.41619,166.58842 212.10384,164.86647 214.24554,163.70137 216.38718,162.53632 218.79446,161.95377 221.46729,161.95375 225.59649,161.95377 228.98033,163.29018 231.61892,165.96297 234.00046,168.39598 235.31119,171.40292 235.55109,174.98382 237.77841,174.07576 238.92637,172.34527 238.99493,169.79232 L 235.49968,169.79232 z M 225.11677,159.22949 220.56779,159.22949 213.47451,151.54512 221.57011,151.54512 z"
       id="path3104"
       style="font-size:19.42287254px;font-style:normal;font-variant:normal;font-weight:bold;font-stretch:normal;line-height:125%;letter-spacing:0px;word-spacing:0px;fill:#333333;fill-opacity:1;stroke:none;font-family:Arial;-inkscape-font-specification:Arial Bold" />
    <path
       d="M 271.32591,189.86428 264.10414,189.86428 264.10414,175.93474 C 264.10408,172.98778 263.9499,171.08166 263.64151,170.2164 263.33311,169.35119 262.83193,168.67869 262.13804,168.19892 261.4441,167.71921 260.60884,167.47933 259.63227,167.4793 258.38149,167.47933 257.25924,167.822 256.26551,168.50733 255.27177,169.19269 254.59072,170.10075 254.22235,171.23154 253.85398,172.3624 253.66976,174.45267 253.66976,177.50244 L 253.66976,189.86428 246.44801,189.86428 246.44801,162.57056 253.15578,162.57056 253.15578,166.57981 C 255.53735,163.4958 258.5357,161.95377 262.15091,161.95375 263.74432,161.95377 265.20064,162.24075 266.51996,162.81471 267.8392,163.3887 268.83723,164.12115 269.51402,165.01208 270.19076,165.90304 270.66192,166.91391 270.92754,168.0447 271.1931,169.17556 271.32588,170.79468 271.32591,172.90207 z"
       id="path3106"
       style="font-size:19.42287254px;font-style:normal;font-variant:normal;font-weight:bold;font-stretch:normal;line-height:125%;letter-spacing:0px;word-spacing:0px;fill:#333333;fill-opacity:1;stroke:none;font-family:Arial;-inkscape-font-specification:Arial Bold" />
    <path
       d="M 278.008,191.6633 286.25776,192.66563 C 286.39485,193.62508 286.7118,194.28472 287.2087,194.64452 287.894,195.15854 288.97342,195.41556 290.44692,195.41556 292.3316,195.41556 293.74512,195.13282 294.6875,194.56743 295.32143,194.19048 295.80116,193.58225 296.1267,192.74272 296.34942,192.14304 296.4608,191.03794 296.4608,189.42739 L 296.4608,185.44382 C 294.30194,188.3908 291.57775,189.86428 288.28812,189.86428 284.62151,189.86428 281.7174,188.31371 279.5757,185.21253 277.89662,182.76246 277.05705,179.71264 277.05708,176.06322 277.05705,171.48858 278.1579,167.99335 280.35959,165.5775 282.56122,163.16167 285.29828,161.95377 288.5708,161.95375 291.94613,161.95377 294.7303,163.43582 296.9234,166.39988 L 296.9234,162.57056 303.6826,162.57056 303.6826,187.06293 C 303.68257,190.28406 303.41701,192.69132 302.88589,194.28472 302.35472,195.87814 301.60941,197.12889 300.64996,198.03698 299.69043,198.94504 298.40972,199.6561 296.80775,200.17012 295.20577,200.68412 293.17973,200.94111 290.72965,200.94111 286.1036,200.94111 282.82253,200.1487 280.88643,198.56384 278.95035,196.97899 277.98229,194.97008 277.98229,192.5371 277.98229,192.29724 277.99085,192.00596 278.008,191.6633 z M 284.45877,175.652 C 284.45877,178.54757 285.01988,180.66788 286.14213,182.01282 287.26438,183.35785 288.64793,184.03032 290.29276,184.0303 292.05748,184.03032 293.54807,183.34069 294.7646,181.96143 295.98105,180.58217 296.58927,178.53903 296.5893,175.8319 296.58927,173.00491 296.00676,170.90605 294.84168,169.53533 293.6766,168.16466 292.2031,167.47933 290.42123,167.4793 288.69071,167.47933 287.26438,168.15183 286.14213,169.4968 285.01988,170.8418 284.45877,172.89353 284.45877,175.652 z"
       id="path3108"
       style="font-size:19.42287254px;font-style:normal;font-variant:normal;font-weight:bold;font-stretch:normal;line-height:125%;letter-spacing:0px;word-spacing:0px;fill:#333333;fill-opacity:1;stroke:none;font-family:Arial;-inkscape-font-specification:Arial Bold" />
    <path
       d="M 325.57925,189.86428 325.57925,152.18763 332.98094,152.18763 348.40111,177.34823 348.40111,152.18763 355.46875,152.18763 355.46875,189.86428 347.83572,189.86428 332.64687,165.29479 332.64687,189.86428 z"
       id="path3110"
       style="font-size:19.42287254px;font-style:normal;font-variant:normal;font-weight:bold;font-stretch:normal;line-height:125%;letter-spacing:0px;word-spacing:0px;fill:#333333;fill-opacity:1;stroke:none;font-family:Arial;-inkscape-font-specification:Arial Bold" />
    <path
       d="M 362.81902,191.6633 371.06881,192.66563 C 371.20584,193.62508 371.52285,194.28472 372.01976,194.64452 372.70506,195.15854 373.78444,195.41556 375.25797,195.41556 377.14262,195.41556 378.55614,195.13282 379.49852,194.56743 380.13243,194.19048 380.61218,193.58225 380.9377,192.74272 381.16042,192.14304 381.27177,191.03794 381.2718,189.42739 L 381.2718,185.44382 C 379.11297,188.3908 376.38875,189.86428 373.09914,189.86428 369.43257,189.86428 366.5284,188.31371 364.38672,185.21253 362.70764,182.76246 361.86808,179.71264 361.86811,176.06322 361.86808,171.48858 362.96892,167.99335 365.17058,165.5775 367.37222,163.16167 370.10934,161.95377 373.38185,161.95375 376.75713,161.95377 379.54133,163.43582 381.73443,166.39988 L 381.73443,162.57056 388.49362,162.57056 388.49362,187.06293 C 388.4936,190.28406 388.22804,192.69132 387.69692,194.28472 387.16574,195.87814 386.42043,197.12889 385.46099,198.03698 384.50148,198.94504 383.22074,199.6561 381.61877,200.17012 380.01677,200.68412 377.99072,200.94111 375.54065,200.94111 370.9146,200.94111 367.63353,200.1487 365.69742,198.56384 363.76135,196.97899 362.79328,194.97008 362.79328,192.5371 362.79328,192.29724 362.80184,192.00596 362.81902,191.6633 z M 369.2698,175.652 C 369.26977,178.54757 369.83091,180.66788 370.95318,182.01282 372.0754,183.35785 373.4589,184.03032 375.10373,184.0303 376.86847,184.03032 378.3591,183.34069 379.5756,181.96143 380.79205,180.58217 381.4003,178.53903 381.40033,175.8319 381.4003,173.00491 380.81776,170.90605 379.6527,169.53533 378.4876,168.16466 377.01412,167.47933 375.23223,167.4793 373.50176,167.47933 372.0754,168.15183 370.95318,169.4968 369.83091,170.8418 369.26977,172.89353 369.2698,175.652 z"
       id="path3112"
       style="font-size:19.42287254px;font-style:normal;font-variant:normal;font-weight:bold;font-stretch:normal;line-height:125%;letter-spacing:0px;word-spacing:0px;fill:#333333;fill-opacity:1;stroke:none;font-family:Arial;-inkscape-font-specification:Arial Bold" />
    <path
       d="M 401.06107,170.89746 394.50748,169.71523 C 395.24423,167.0767 396.5121,165.12348 398.31114,163.85555 400.11013,162.58772 402.78298,161.95377 406.32962,161.95375 409.55071,161.95377 411.94939,162.33502 413.5257,163.0974 415.10196,163.85987 416.21137,164.82791 416.85389,166.00155 417.49639,167.17519 417.81762,169.32974 417.81765,172.46516 L 417.74057,180.89487 C 417.74055,183.29359 417.8562,185.06262 418.08752,186.202 418.31881,187.3414 418.75142,188.56214 419.38538,189.86428 L 412.24071,189.86428 C 412.0522,189.38454 411.82089,188.67349 411.5468,187.73114 411.42683,187.30282 411.34116,187.02011 411.2898,186.88306 410.05615,188.0824 408.73688,188.98189 407.33195,189.58157 405.927,190.18125 404.42779,190.48109 402.83438,190.48109 400.02446,190.48109 397.80996,189.71864 396.19084,188.19375 394.57174,186.66887 393.76217,184.74135 393.76217,182.41118 393.76217,180.8692 394.13057,179.49421 394.86729,178.28629 395.60402,177.07838 396.63632,176.15319 397.9642,175.51066 399.29199,174.86818 401.20669,174.30703 403.70821,173.82729 407.08349,173.19337 409.42224,172.60226 410.72441,172.05397 L 410.72441,171.33435 C 410.72438,169.94657 410.38172,168.9571 409.69639,168.36599 409.01097,167.77487 407.71742,167.47933 405.81565,167.4793 404.5306,167.47933 403.52826,167.73207 402.80869,168.23748 402.08909,168.74294 401.50655,169.6296 401.06107,170.89746 z M 410.72441,176.75712 C 409.79915,177.06555 408.33421,177.43391 406.32962,177.86226 404.32497,178.29058 403.01427,178.71036 402.39748,179.12155 401.45513,179.78976 400.98394,180.63788 400.98397,181.66586 400.98394,182.67676 401.3609,183.55056 402.11475,184.28731 402.86865,185.02406 403.82815,185.39242 404.9932,185.39242 406.29535,185.39242 407.53753,184.9641 408.71976,184.10743 409.59354,183.45634 410.16755,182.65963 410.44167,181.71728 410.63012,181.10047 410.72438,179.92685 410.72441,178.19636 z M 410.26181,159.22949 405.71283,159.22949 398.61951,151.54512 406.71514,151.54512 z"
       id="path3114"
       style="font-size:19.42287254px;font-style:normal;font-variant:normal;font-weight:bold;font-stretch:normal;line-height:125%;letter-spacing:0px;word-spacing:0px;fill:#333333;fill-opacity:1;stroke:none;font-family:Arial;-inkscape-font-specification:Arial Bold" />
    <path
       d="M 421.54421,162.57056 429.22861,162.57056 435.75649,181.94857 442.13016,162.57056 449.60895,162.57056 439.97133,188.83628 438.24942,193.59082 C 437.61546,195.18424 437.01149,196.40073 436.43754,197.24027 435.86356,198.07981 435.20394,198.76087 434.45863,199.28344 433.71329,199.806 432.79664,200.21292 431.70867,200.50422 430.62069,200.79545 429.39135,200.94111 428.02069,200.94111 426.63286,200.94111 425.27074,200.79545 423.93435,200.50422 L 423.29183,194.85011 C 424.42264,195.07286 425.4421,195.18424 426.35015,195.18424 428.02925,195.18424 429.27141,194.69164 430.07671,193.70647 430.882,192.72132 431.49878,191.46627 431.92714,189.94137 z"
       id="path3116"
       style="font-size:19.42287254px;font-style:normal;font-variant:normal;font-weight:bold;font-stretch:normal;line-height:125%;letter-spacing:0px;word-spacing:0px;fill:#333333;fill-opacity:1;stroke:none;font-family:Arial;-inkscape-font-specification:Arial Bold" />
  </g>
</svg>
